<svg xmlns="http://www.w3.org/2000/svg" xmlns:xlink="http://www.w3.org/1999/xlink" xmlns:inkscape="http://www.inkscape.org/namespaces/inkscape" version="1.1" width="206" height="175" viewBox="0 0 206 175">
<defs>
<path id="font_1_1" d="M.69898989 .22743225C.71499636 .22743225 .7369995 .22743225 .7369995 .25042726 .7369995 .2734375 .71499636 .2734375 .69898989 .2734375H.12599182C.10998535 .2734375 .08799744 .2734375 .08799744 .25042726 .08799744 .22743225 .10998535 .22743225 .12599182 .22743225H.69898989Z"/>
<path id="font_2_4" d="M.3939972 .6468048C.3939972 .6667938 .3939972 .6748047 .37298585 .6748047 .3600006 .6748047 .35899354 .6737976 .34899903 .65979006L.02999878 .197052V.1640625H.31199647V.08100891C.31199647 .04399109 .30899049 .032989503 .23199463 .032989503H.20899964V0C.2939911 .0029907227 .29599 .0029907227 .35299684 .0029907227 .4099884 .0029907227 .4119873 .0029907227 .49699403 0V.032989503H.47399903C.39698792 .032989503 .3939972 .04399109 .3939972 .08100891V.1640625H.5V.197052H.3939972V.6468048M.31900025 .5658417V.197052H.06498718L.31900025 .5658417Z"/>
<path id="font_2_3" d="M.25299073 .33370973C.33198548 .33370973 .38198854 .27557374 .38198854 .17037964 .38198854 .045440675 .31098939 .008514404 .2579956 .008514404 .20298767 .008514404 .12799073 .0284729 .09298706 .08137512 .1289978 .08137512 .1539917 .10437012 .1539917 .13737488 .1539917 .16937256 .1309967 .19238281 .09899902 .19238281 .07199097 .19238281 .04399109 .17536927 .04399109 .13537598 .04399109 .04045105 .1459961-.021484375 .2599945-.021484375 .3929901-.021484375 .48599244 .070388797 .48599244 .17037964 .48599244 .25352479 .41999818 .32969667 .31799317 .3517456 .39698792 .37982179 .45599366 .4479828 .45599366 .52804568 .45599366 .6080475 .3659973 .66503909 .2619934 .66503909 .15499878 .66503909 .07398987 .6070404 .07398987 .53105166 .07398987 .49404908 .09899902 .4780426 .125 .4780426 .1559906 .4780426 .17599488 .5000458 .17599488 .52905276 .17599488 .56604006 .14399719 .5800476 .12199402 .5810547 .1639862 .6360321 .24099732 .6390381 .25898744 .6390381 .2849884 .6390381 .36099244 .6310272 .36099244 .52804568 .36099244 .45799256 .33198548 .41589356 .31799317 .39985658 .28799439 .36878968 .2649994 .36679078 .20399475 .3627777 .18499756 .36177064 .1769867 .36076356 .1769867 .3477478 .1769867 .33370973 .18598938 .33370973 .20298767 .33370973H.25299073Z"/>
<path id="font_2_2" d="M.28199769 .20405579C.2979889 .21907044 .33999635 .2520752 .35598756 .26608277 .41799928 .32312013 .47698976 .3781433 .47698976 .46917726 .47698976 .588089 .3769989 .66503909 .2519989 .66503909 .13198853 .66503909 .052993776 .57411196 .052993776 .48516847 .052993776 .4361725 .09199524 .4291687 .10598755 .4291687 .1269989 .4291687 .1579895 .4441681 .1579895 .48217774 .1579895 .5341797 .10798645 .5341797 .09599304 .5341797 .125 .6070709 .19198609 .6320343 .24099732 .6320343 .33399964 .6320343 .38198854 .55314639 .38198854 .46917726 .38198854 .36514283 .30899049 .28910829 .19099427 .16804505L.06498718 .037994386C.052993776 .026992798 .052993776 .024993897 .052993776 0H.44799806L.47698976 .17904663H.44599916C.44299317 .1590271 .43499757 .10900879 .4229889 .08999634 .4169922 .08198547 .34098817 .08198547 .32499696 .08198547H.14698792L.28199769 .20405579Z"/>
<path id="font_2_1" d="M.31399537 .63708499C.31399537 .664032 .31199647 .66503909 .2849884 .66503909 .24398804 .6251831 .19099427 .6013489 .09599304 .6013489V.5683594C.12298584 .5683594 .1769867 .5683594 .23498535 .5953522V.08203125C.23498535 .04499817 .23199463 .032989503 .13699341 .032989503H.101989749V0C.14299011 .0029907227 .22898865 .0029907227 .27398683 .0029907227 .31900025 .0029907227 .4059906 .0029907227 .44699098 0V.032989503H.4119873C.31698609 .032989503 .31399537 .04499817 .31399537 .08203125V.63708499Z"/>
<path id="font_2_5" d="M.13999939 .5618439C.15299988 .55784609 .19299317 .54785159 .23498535 .54785159 .3600006 .54785159 .43598939 .6358948 .43598939 .6510315 .43598939 .6620331 .42900086 .66503909 .42399598 .66503909 .42199708 .66503909 .41999818 .66503909 .41099549 .6600342 .37199403 .6450348 .32598878 .632843 .27198792 .632843 .21299744 .632843 .1639862 .6480255 .1329956 .6600342 .12298584 .66503909 .12098694 .66503909 .11999512 .66503909 .10699463 .66503909 .10699463 .6540375 .10699463 .6358948V.34292604C.10699463 .32492066 .10699463 .312912 .12298584 .312912 .1309967 .312912 .13398743 .3169098 .13899231 .32492066 .15098572 .33992005 .18899536 .39093019 .27398683 .39093019 .32998658 .39093019 .35699464 .34492494 .3659973 .32591249 .3829956 .28990174 .3849945 .24389649 .3849945 .20487976 .3849945 .1678772 .38398744 .11387634 .35598756 .069732669 .33699037 .039611818 .29699708 .008514404 .24398804 .008514404 .1789856 .008514404 .114990238 .0496521 .09199524 .11488342 .09498596 .11387634 .100997928 .11387634 .101989749 .11387634 .12998963 .11387634 .1519928 .13188172 .1519928 .16288758 .1519928 .19989014 .12298584 .21289063 .102996829 .21289063 .084991458 .21289063 .052993776 .20288086 .052993776 .15988159 .052993776 .069732669 .1309967-.021484375 .24598694-.021484375 .37098695-.021484375 .47698976 .07574463 .47698976 .19989014 .47698976 .31591798 .3929901 .4189453 .2749939 .4189453 .22499085 .4189453 .17799378 .40293885 .13999939 .368927V.5618439Z"/>
<path id="font_2_6" d="M.13798523 .33073426C.13798523 .41377259 .14498902 .4868164 .18099976 .54782107 .21099854 .5978241 .2619934 .6390381 .32499696 .6390381 .34498597 .6390381 .3909912 .63601687 .4139862 .60084536 .36898805 .5988312 .36499024 .5648346 .36499024 .553833 .36499024 .5238342 .3880005 .50683596 .4119873 .50683596 .42999269 .50683596 .45899964 .51782229 .45899964 .5558319 .45899964 .615921 .4139862 .66503909 .32398988 .66503909 .18499756 .66503909 .04399109 .53282168 .04399109 .31672669 .04399109 .045532228 .16999817-.021484375 .2669983-.021484375 .31498719-.021484375 .36698915-.0084991459 .4119873 .03453064 .45199586 .07354736 .48599244 .11558533 .48599244 .20263672 .48599244 .33372499 .3869934 .42578126 .27598573 .42578126 .20399475 .42578126 .16099549 .37976075 .13798523 .33073426M.2669983 .008514404C.21398926 .008514404 .18099976 .045532228 .1659851 .07354736 .14299011 .11859131 .14099121 .18663025 .14099121 .22465515 .14099121 .32373048 .19499207 .3977661 .27198792 .3977661 .32199098 .3977661 .35198976 .37176515 .37098695 .33673097 .3919983 .29971314 .3919983 .25468446 .3919983 .2036438 .3919983 .15260315 .3919983 .10858154 .37199403 .07255554 .34599305 .026519776 .31098939 .008514404 .2669983 .008514404Z"/>
<path id="font_3_1" d="M.33399964 .30233766C.33999635 .32835389 .36299134 .42037965 .43299867 .42037965 .43798829 .42037965 .46199037 .42037965 .48298646 .40734864 .45498658 .402359 .43499757 .37734986 .43499757 .35334779 .43499757 .33735658 .44599916 .31835938 .47299195 .31835938 .49499513 .31835938 .5269928 .3363495 .5269928 .37635804 .5269928 .42837525 .46798707 .4423828 .43399049 .4423828 .37599183 .4423828 .34098817 .38935853 .32899476 .36634828 .3039856 .43237306 .25 .4423828 .22099304 .4423828 .116989139 .4423828 .05999756 .3133545 .05999756 .28834535 .05999756 .27833558 .069992069 .27833558 .07199097 .27833558 .07998657 .27833558 .08299255 .28033448 .084991458 .28933717 .11898804 .39535523 .18499756 .42037965 .21899414 .42037965 .23799134 .42037965 .272995 .4113617 .272995 .35334779 .272995 .32235719 .2559967 .25532533 .21899414 .11528015 .20298767 .053268434 .16799927 .011245728 .12399292 .011245728 .117996219 .011245728 .09498596 .011245728 .07398987 .024276734 .09899902 .029266358 .12098694 .05027771 .12098694 .07827759 .12098694 .105270389 .09899902 .11328125 .083999637 .11328125 .053985597 .11328125 .0289917 .08728027 .0289917 .055267335 .0289917 .009246826 .07899475-.0107421879 .12298584-.0107421879 .18899536-.0107421879 .22499085 .059280397 .22799683 .0652771 .23999024 .028274537 .27598573-.0107421879 .33599855-.0107421879 .43899537-.0107421879 .49598695 .118270877 .49598695 .14328003 .49598695 .1532898 .4869995 .1532898 .48399354 .1532898 .47499085 .1532898 .47299195 .14929199 .47099305 .14228821 .43798829 .03527832 .36999513 .011245728 .33799745 .011245728 .29899598 .011245728 .2829895 .043273927 .2829895 .07727051 .2829895 .09927368 .2889862 .121276859 .2999878 .16529846L.33399964 .30233766Z"/>
<path id="font_3_2" d="M.48599244 .38136292C.48999024 .39537049 .48999024 .39736939 .48999024 .40437318 .48999024 .42237855 .47599793 .43138124 .46099855 .43138124 .45098878 .43138124 .43499757 .42536927 .42599488 .41036988 .42399598 .405365 .41600038 .37435914 .4119873 .35635377 .40499879 .33035279 .397995 .30334474 .3919983 .27633668L.34700013 .09628296C.34298707 .08126831 .2999878 .011245728 .23399353 .011245728 .18299866 .011245728 .17199707 .055267335 .17199707 .0922699 .17199707 .1382904 .18899536 .20030213 .22299195 .28833009 .23899842 .3293457 .24299622 .3403473 .24299622 .36035157 .24299622 .405365 .21099854 .4423828 .16099549 .4423828 .06599426 .4423828 .0289917 .29733277 .0289917 .28833009 .0289917 .27833558 .038986207 .27833558 .040985109 .27833558 .050994874 .27833558 .051986696 .28033448 .056991579 .29634095 .083999637 .3903656 .12399292 .42037965 .1579895 .42037965 .1659851 .42037965 .18299866 .42037965 .18299866 .3883667 .18299866 .36335755 .17298889 .3373413 .1659851 .31834413 .12599182 .21231079 .10798645 .1552887 .10798645 .10827637 .10798645 .019256592 .17098999-.0107421879 .22999573-.0107421879 .2689972-.0107421879 .30299378 .0062561037 .33099366 .03425598 .31799317-.017745972 .30599977-.06674194 .2659912-.11973572 .23999024-.15385437 .20199585-.18309021 .1559906-.18309021 .14199829-.18309021 .09700012-.18005371 .07998657-.14074707 .09599304-.14074707 .10899353-.14074707 .12298584-.1287384 .1329956-.11973572 .14299011-.10673523 .14299011-.08773804 .14299011-.056747438 .115997318-.052734376 .10598755-.052734376 .08299255-.052734376 .049987794-.068740848 .049987794-.11773682 .049987794-.16796875 .09399414-.20507813 .1559906-.20507813 .25898744-.20507813 .3619995-.11373901 .3899994-.00074768069L.48599244 .38136292Z"/>
</defs>
<path transform="matrix(1.00002,0,0,-1,1.095665,173.09001)" stroke-width=".19925" stroke-linecap="butt" stroke-miterlimit="10" stroke-linejoin="miter" fill="none" stroke="#7f807f" d="M10.79263 42.70476V46.95648M32.37793 42.70476V46.95648M53.96321 42.70476V46.95648M75.54851 42.70476V46.95648M118.71909 42.70476V46.95648M140.30437 42.70476V46.95648M161.88967 42.70476V46.95648M183.47495 42.70476V46.95648"/>
<path transform="matrix(1.00002,0,0,-1,1.095665,173.09001)" stroke-width=".19925" stroke-linecap="butt" stroke-miterlimit="10" stroke-linejoin="miter" fill="none" stroke="#7f807f" d="M95.00781 8.96613H99.25977M95.00781 26.89838H99.25977M95.00781 62.76288H99.25977M95.00781 80.69513H99.25977M95.00781 98.62738H99.25977M95.00781 116.55965H99.25977M95.00781 134.4919H99.25977M95.00781 152.42415H99.25977"/>
<path transform="matrix(1.00002,0,0,-1,1.095665,173.09001)" stroke-width=".3985" stroke-linecap="butt" stroke-miterlimit="10" stroke-linejoin="miter" fill="none" stroke="#000000" d="M0 44.83063H192.27507"/>
<path transform="matrix(1.00002,0,0,-1,193.37458,128.25939)" d="M1.99252 0-1.19551 1.59401 0 0-1.19551-1.59401"/>
<path transform="matrix(1.00002,0,0,-1,1.095665,173.09001)" stroke-width=".3985" stroke-linecap="butt" stroke-miterlimit="10" stroke-linejoin="miter" fill="none" stroke="#000000" d="M97.13379 0V159.39775"/>
<path transform="matrix(0,-1,-1.00002,-0,98.2314,13.692261)" d="M1.99252 0-1.19551 1.59401 0 0-1.19551-1.59401"/>
<use data-text="&#x2212;" xlink:href="#font_1_1" transform="matrix(7.9702599,0,0,-7.9701,6.4777758,136.71701)"/>
<use data-text="4" xlink:href="#font_2_4" transform="matrix(7.9702599,0,0,-7.9701,13.064903,136.71701)"/>
<use data-text="&#x2212;" xlink:href="#font_1_1" transform="matrix(7.9702599,0,0,-7.9701,28.064206,136.71701)"/>
<use data-text="3" xlink:href="#font_2_3" transform="matrix(7.9702599,0,0,-7.9701,34.651334,136.71701)"/>
<use data-text="&#x2212;" xlink:href="#font_1_1" transform="matrix(7.9702599,0,0,-7.9701,49.64964,136.71701)"/>
<use data-text="2" xlink:href="#font_2_2" transform="matrix(7.9702599,0,0,-7.9701,56.236768,136.71701)"/>
<use data-text="&#x2212;" xlink:href="#font_1_1" transform="matrix(7.9702599,0,0,-7.9701,71.23507,136.71701)"/>
<use data-text="1" xlink:href="#font_2_1" transform="matrix(7.9702599,0,0,-7.9701,77.8222,136.71701)"/>
<use data-text="1" xlink:href="#font_2_1" transform="matrix(7.9702599,0,0,-7.9701,117.7,136.71701)"/>
<use data-text="2" xlink:href="#font_2_2" transform="matrix(7.9702599,0,0,-7.9701,139.28543,136.71701)"/>
<use data-text="3" xlink:href="#font_2_3" transform="matrix(7.9702599,0,0,-7.9701,160.87186,136.71701)"/>
<use data-text="4" xlink:href="#font_2_4" transform="matrix(7.9702599,0,0,-7.9701,182.4573,136.71701)"/>
<use data-text="&#x2212;" xlink:href="#font_1_1" transform="matrix(7.9702599,0,0,-7.9701,84.088329,166.27701)"/>
<use data-text="2" xlink:href="#font_2_2" transform="matrix(7.9702599,0,0,-7.9701,90.67545,166.27701)"/>
<use data-text="&#x2212;" xlink:href="#font_1_1" transform="matrix(7.9702599,0,0,-7.9701,84.088329,148.34502)"/>
<use data-text="1" xlink:href="#font_2_1" transform="matrix(7.9702599,0,0,-7.9701,90.67545,148.34502)"/>
<use data-text="1" xlink:href="#font_2_1" transform="matrix(7.9702599,0,0,-7.9701,90.67546,112.89501)"/>
<use data-text="2" xlink:href="#font_2_2" transform="matrix(7.9702599,0,0,-7.9701,90.67546,94.96301)"/>
<use data-text="3" xlink:href="#font_2_3" transform="matrix(7.9702599,0,0,-7.9701,90.67546,77.03101)"/>
<use data-text="4" xlink:href="#font_2_4" transform="matrix(7.9702599,0,0,-7.9701,90.67546,59.099016)"/>
<use data-text="5" xlink:href="#font_2_5" transform="matrix(7.9702599,0,0,-7.9701,90.67546,41.166017)"/>
<use data-text="6" xlink:href="#font_2_6" transform="matrix(7.9702599,0,0,-7.9701,90.67546,23.234009)"/>
<path transform="matrix(1.00002,0,0,-1,1.095665,173.09001)" stroke-width="1.59404" stroke-linecap="butt" stroke-miterlimit="10" stroke-linejoin="miter" fill="none" stroke="#0000ff" d="M10.79263 8.96613C10.79263 8.96613 11.41649 9.4844 11.65605 9.68341 11.8956 9.88242 12.27971 10.20152 12.51923 10.40051 12.75876 10.59952 13.14291 10.91862 13.38243 11.11763 13.62195 11.31662 14.00607 11.63573 14.24564 11.83473 14.48518 12.03374 14.86949 12.35301 15.10904 12.55202 15.34859 12.75104 15.73271 13.07013 15.97224 13.26913 16.21176 13.46812 16.59587 13.78723 16.83542 13.98624 17.07498 14.18524 17.45929 14.50452 17.69884 14.70352 17.93839 14.90254 18.32251 15.22166 18.56203 15.42065 18.80156 15.61964 19.18568 15.93875 19.42523 16.13776 19.66478 16.33676 20.04909 16.65604 20.28865 16.85504 20.5282 17.05406 20.91232 17.37317 21.15184 17.57216 21.39136 17.77115 21.77551 18.09027 22.01505 18.28926 22.25456 18.48827 22.63869 18.80737 22.87823 19.0064 23.1178 19.2054 23.50208 19.52464 23.74165 19.72368 23.98123 19.92271 24.36551 20.24196 24.60506 20.44096 24.84462 20.63998 25.22873 20.95908 25.46825 21.15808 25.70776 21.35707 26.09192 21.6762 26.33145 21.87518 26.57097 22.07417 26.9551 22.39328 27.19464 22.59229 27.4342 22.7913 27.8185 23.11057 28.05806 23.30959 28.2976 23.50859 28.68173 23.8277 28.92125 24.02669 29.16078 24.22568 29.5449 24.5448 29.78445 24.7438 30.024 24.94283 30.40831 25.2621 30.64786 25.4611 30.88742 25.66011 31.27153 25.97922 31.51105 26.1782 31.75056 26.3772 32.13469 26.6963 32.37425 26.89532 32.6138 27.09433 32.99811 27.4136 33.23766 27.61261 33.47722 27.81161 33.86133 28.13072 34.10086 28.32971 34.34038 28.5287 34.72453 28.84782 34.96405 29.04683 35.20358 29.24582 35.58769 29.56494 35.82724 29.76395 36.06679 29.96295 36.4511 30.28223 36.69066 30.48123 36.9302 30.68025 37.3143 30.99933 37.55385 31.19835 37.7934 31.39735 38.1777 31.71663 38.41727 31.91563 38.65681 32.11464 39.04094 32.43375 39.28046 32.63274 39.51999 32.83174 39.90411 33.15083 40.14366 33.34985 40.38321 33.54886 40.76752 33.86813 41.00706 34.06714 41.24663 34.26614 41.63075 34.58525 41.87027 34.78424 42.10979 34.98325 42.49394 35.30238 42.73347 35.50137 42.97299 35.70036 43.3571 36.01947 43.59665 36.21848 43.8362 36.41748 44.2205 36.73676 44.46007 36.93576 44.69962 37.13478 45.08374 37.45389 45.32326 37.65288 45.56279 37.85187 45.94691 38.17097 46.18646 38.36998 46.42601 38.56898 46.81032 38.88826 47.04987 39.08728 47.28943 39.28629 47.67355 39.6054 47.91307 39.80438 48.15259 40.00337 48.53671 40.3225 48.77628 40.5215 49.01582 40.72052 49.40013 41.03978 49.63968 41.2388 49.87923 41.4378 50.26334 41.75691 50.50287 41.9559 50.74239 42.15489 51.12651 42.474 51.36606 42.673 51.60562 42.87202 51.98993 43.19128 52.22948 43.3903 52.46902 43.58931 52.85315 43.90842 53.09267 44.1074 53.3322 44.3064 53.71632 44.6255 53.95587 44.82451 54.19542 45.02353 54.57973 45.3428 54.81929 45.54181 55.05884 45.74081 55.44295 46.05994 55.68246 46.25893 55.922 46.45792 56.3061 46.77702 56.54567 46.97604 56.78522 47.17505 57.16953 47.49432 57.40907 47.69333 57.64864 47.89233 58.03276 48.21144 58.27228 48.41043 58.5118 48.60942 58.89592 48.92853 59.13548 49.12755 59.37503 49.32655 59.75934 49.64583 59.99889 49.84483 60.23843 50.04384 60.62256 50.36295 60.86209 50.56194 61.10161 50.76094 61.48573 51.08005 61.72528 51.27907 61.96484 51.47807 62.34914 51.79735 62.5887 51.99635 62.82825 52.19536 63.21236 52.51447 63.45187 52.71346 63.6914 52.91246 64.07553 53.23155 64.31508 53.43057 64.55463 53.62958 64.93893 53.94885 65.1785 54.14786 65.41805 54.34686 65.80217 54.66597 66.04169 54.86496 66.2812 55.06396 66.66533 55.38307 66.90489 55.58208 67.14444 55.78108 67.52875 56.10036 67.7683 56.29936 68.00786 56.49837 68.39197 56.81749 68.6315 57.01648 68.87102 57.21548 69.25513 57.53459 69.49467 57.7336 69.73424 57.9326 70.11855 58.25188 70.3581 58.45088 70.59764 58.64989 70.98177 58.969 71.2213 59.168 71.46082 59.36699 71.84494 59.6861 72.08449 59.8851 72.32404 60.0841 72.70834 60.40338 72.9479 60.60239 73.18745 60.8014 73.57158 61.12051 73.8111 61.31952 74.05063 61.51851 74.43475 61.83762 74.6743 62.03662 74.91385 62.23563 75.29816 62.5549 75.5377 62.7539 75.77727 62.95293 76.16138 63.27202 76.4009 63.47102 76.64041 63.67001 77.02454 63.98912 77.2641 64.18813 77.50365 64.38713 77.88795 64.7064 78.1275 64.90541 78.36705 65.10443 78.75117 65.42354 78.9907 65.62253 79.23022 65.82152 79.61435 66.14064 79.8539 66.33965 80.09346 66.53865 80.47777 66.85793 80.71732 67.05693 80.95686 67.25595 81.34099 67.57506 81.5805 67.77405 81.82004 67.97304 82.20415 68.29214 82.4437 68.49115 82.68324 68.69016 83.06755 69.00943 83.30711 69.20845 83.54666 69.40746 83.93079 69.72656 84.1703 69.92555 84.40984 70.12454 84.79395 70.44365 85.03351 70.64265 85.27306 70.84167 85.65736 71.16093 85.89691 71.35995 86.13647 71.55896 86.5206 71.87808 86.76012 72.07707 86.99963 72.27606 87.38376 72.59517 87.62332 72.79417 87.86287 72.9932 88.24718 73.31245 88.48672 73.51147 88.72627 73.71048 89.11038 74.02959 89.34991 74.22858 89.58943 74.42757 89.97356 74.74667 90.2131 74.94568 90.45267 75.1447 90.83696 75.46396 91.07652 75.66298 91.31607 75.86198 91.7002 76.18109 91.93971 76.38008 92.17924 76.57907 92.56337 76.8982 92.80292 77.0972 93.04247 77.29622 93.42677 77.6155 93.66634 77.8145 93.90588 78.0135 94.29001 78.33261 94.52953 78.5316 94.76904 78.73059 95.15315 79.0497 95.39272 79.24872 95.63226 79.44772 96.01657 79.767 96.25612 79.966 96.49568 80.16501 96.87979 80.48412 97.11932 80.6831 97.35884 80.88211 97.74297 81.2012 97.98251 81.40022 98.22208 81.59923 98.60638 81.9185 98.84593 82.11751 99.08548 82.31651 99.4696 82.63564 99.70914 82.83463 99.94865 83.03363 100.33276 83.35272 100.57231 83.55174 100.81186 83.75075 101.19617 84.07002 101.43573 84.26903 101.67528 84.46803 102.0594 84.78714 102.29892 84.98613 102.53845 85.18513 102.9226 85.50424 103.16212 85.70325 103.40164 85.90224 103.78577 86.22134 104.02531 86.42035 104.26488 86.61935 104.64919 86.93863 104.88873 87.13763 105.12828 87.33665 105.5124 87.65578 105.75194 87.85477 105.99146 88.05376 106.37558 88.37286 106.61513 88.57187 106.85469 88.77087 107.23898 89.09015 107.47855 89.28917 107.7181 89.48817 108.1022 89.80728 108.34172 90.00627 108.58125 90.20526 108.96538 90.52437 109.20493 90.72337 109.44447 90.9224 109.82878 91.24165 110.06833 91.44067 110.30789 91.63968 110.69202 91.95879 110.93153 92.15778 111.17105 92.35677 111.55518 92.67587 111.79474 92.87488 112.03429 93.0739 112.4186 93.39316 112.65814 93.59218 112.8977 93.79118 113.28178 94.11029 113.52135 94.3093 113.7609 94.5083 114.1452 94.82758 114.38475 95.02658 114.62431 95.2256 115.00842 95.5447 115.24794 95.7437 115.48746 95.94269 115.87161 96.26181 116.11115 96.4608 116.35066 96.65979 116.73479 96.9789 116.97433 97.1779 117.21388 97.37692 117.59819 97.6962 117.83775 97.8952 118.0773 98.09421 118.46143 98.41333 118.70094 98.61232 118.94048 98.81131 119.32457 99.13042 119.56413 99.32944 119.80368 99.52844 120.18799 99.84772 120.42754 100.04672 120.6671 100.24573 121.05122 100.56483 121.29074 100.76382 121.53026 100.96283 121.91438 101.28192 122.15395 101.48094 122.3935 101.67995 122.7778 101.99922 123.01735 102.19823 123.2569 102.39723 123.64102 102.71634 123.88055 102.91533 124.12007 103.11433 124.50423 103.43346 124.74374 103.63246 124.98328 103.83145 125.3674 104.15056 125.60695 104.34956 125.8465 104.54857 126.23077 104.86781 126.47035 105.06685 126.70995 105.2659 127.09422 105.58513 127.33377 105.78415 127.57332 105.98315 127.95743 106.30226 128.19696 106.50125 128.43648 106.70024 128.82064 107.01936 129.06015 107.21835 129.29967 107.41736 129.68379 107.73647 129.92336 107.93547 130.1629 108.13448 130.54721 108.45375 130.78676 108.65276 131.02632 108.85176 131.41045 109.17088 131.64997 109.36989 131.88948 109.56888 132.2736 109.88799 132.51316 110.08699 132.75272 110.286 133.13703 110.60527 133.37657 110.80428 133.61612 111.00328 134.00023 111.32239 134.23976 111.5214 134.47928 111.72038 134.8634 112.03949 135.10295 112.2385 135.34252 112.4375 135.7268 112.75677 135.96637 112.95578 136.20592 113.1548 136.59004 113.47389 136.82956 113.6729 137.06909 113.87189 137.45325 114.19102 137.69277 114.39001 137.93228 114.589 138.3164 114.90811 138.55597 115.10712 138.79552 115.30614 139.1798 115.62537 139.41938 115.82442 139.65895 116.02345 140.04323 116.3427 140.28279 116.5417 140.52234 116.7407 140.90645 117.05981 141.14597 117.2588 141.3855 117.45781 141.76964 117.77693 142.00917 117.97592 142.24869 118.17491 142.63282 118.49403 142.87236 118.69304 143.11193 118.89204 143.49623 119.21132 143.73578 119.41032 143.97533 119.60934 144.35945 119.92845 144.59897 120.12744 144.8385 120.32643 145.22263 120.64554 145.46218 120.84454 145.70172 121.04355 146.08603 121.36282 146.32559 121.56184 146.56514 121.76085 146.94925 122.07996 147.18877 122.27895 147.4283 122.47794 147.81241 122.79704 148.05197 122.99605 148.29152 123.19507 148.67583 123.51433 148.91538 123.71335 149.15494 123.91235 149.53907 124.23148 149.77858 124.43047 150.0181 124.62946 150.40225 124.94858 150.64179 125.14757 150.8813 125.34657 151.26543 125.66566 151.50498 125.86469 151.74452 126.06369 152.12883 126.38297 152.3684 126.58197 152.60794 126.78098 152.99204 127.10007 153.23159 127.29907 153.47115 127.4981 153.85544 127.81737 154.095 128.01638 154.33455 128.21538 154.71866 128.53449 154.95818 128.73348 155.19771 128.93247 155.58184 129.25157 155.82138 129.45059 156.06093 129.6496 156.44524 129.96887 156.6848 130.16788 156.92435 130.36688 157.30847 130.686 157.54799 130.885 157.7875 131.08399 158.17163 131.40309 158.4112 131.60211 158.65074 131.80112 159.03505 132.12039 159.2746 132.3194 159.51416 132.5184 159.89827 132.83751 160.13779 133.0365 160.3773 133.2355 160.76143 133.5546 161.00098 133.75362 161.24054 133.95262 161.62485 134.2719 161.8644 134.4709 162.10395 134.6699 162.48807 134.98903 162.7276 135.18802 162.96712 135.38703 163.35128 135.70613 163.59079 135.90514 163.83032 136.10413 164.21443 136.42324 164.454 136.62224 164.69355 136.82125 165.07785 137.14052 165.3174 137.33953 165.55696 137.53855 165.94107 137.85765 166.18059 138.05664 166.4201 138.25563 166.80423 138.57474 167.04378 138.77375 167.28334 138.97275 167.66765 139.29203 167.9072 139.49103 168.14675 139.69005 168.53087 140.00917 168.7704 140.20816 169.00992 140.40715 169.39405 140.72626 169.63359 140.92527 169.87316 141.12427 170.25745 141.44355 170.49701 141.64257 170.73656 141.84157 171.12068 142.16068 171.3602 142.35967 171.59973 142.55866 171.98384 142.87776 172.22339 143.07677 172.46294 143.27579 172.84725 143.59505 173.08679 143.79407 173.32636 143.99308 173.71048 144.31218 173.95 144.51117 174.18952 144.71016 174.57364 145.02928 174.8132 145.22829 175.05275 145.4273 175.43706 145.74657 175.6766 145.94559 175.91617 146.14459 176.30028 146.4637 176.53981 146.66269 176.77933 146.86168 177.16345 147.18079 177.403 147.37979 177.64257 147.57881 178.02687 147.89809 178.26642 148.09709 178.50597 148.2961 178.89008 148.6152 179.12961 148.8142 179.36913 149.01319 179.75325 149.33229 179.9928 149.53131 180.23235 149.73032 180.61666 150.04959 180.85622 150.2486 181.09577 150.4476 181.47989 150.76673 181.7194 150.96572 181.95894 151.1647 182.34307 151.48381 182.58261 151.68283 182.82216 151.88184 183.44602 152.40012 183.44602 152.40012"/>
<path transform="matrix(1.00002,0,0,-1,1.095665,173.09001)" d="M143.2932 116.55965C143.2932 118.21034 141.95508 119.54848 140.30437 119.54848 138.65367 119.54848 137.31554 118.21034 137.31554 116.55965 137.31554 114.90894 138.65367 113.57082 140.30437 113.57082 141.95508 113.57082 143.2932 114.90894 143.2932 116.55965ZM140.30437 116.55965" fill="#ffffff"/>
<path transform="matrix(1.00002,0,0,-1,1.095665,173.09001)" stroke-width="1.59404" stroke-linecap="butt" stroke-miterlimit="10" stroke-linejoin="miter" fill="none" stroke="#0000ff" d="M143.2932 116.55965C143.2932 118.21034 141.95508 119.54848 140.30437 119.54848 138.65367 119.54848 137.31554 118.21034 137.31554 116.55965 137.31554 114.90894 138.65367 113.57082 140.30437 113.57082 141.95508 113.57082 143.2932 114.90894 143.2932 116.55965ZM140.30437 116.55965"/>
<use data-text="x" xlink:href="#font_3_1" transform="matrix(9.962799,0,0,-9.9626,198.92765,130.39502)"/>
<use data-text="y" xlink:href="#font_3_2" transform="matrix(9.962799,0,0,-9.9626,95.62556,6.207016)"/>
</svg>
