<?xml version="1.0" encoding="UTF-8"?>
<svg xmlns="http://www.w3.org/2000/svg" xmlns:xlink="http://www.w3.org/1999/xlink" width="153.08" height="129.45" viewBox="0 0 153.08 129.45">
<defs>
<g>
<g id="glyph-0-0">
<path d="M 3.296875 -2.21875 C 3.296875 -1.875 3.265625 -1.5625 3.203125 -1.28125 C 3.148438 -1.007812 3.0625 -0.769531 2.9375 -0.5625 C 2.820312 -0.363281 2.660156 -0.207031 2.453125 -0.09375 C 2.253906 0.0078125 2.007812 0.0625 1.71875 0.0625 C 1.445312 0.0625 1.210938 0.015625 1.015625 -0.078125 C 0.828125 -0.179688 0.675781 -0.328125 0.5625 -0.515625 C 0.445312 -0.710938 0.363281 -0.945312 0.3125 -1.21875 C 0.269531 -1.5 0.25 -1.820312 0.25 -2.1875 C 0.25 -2.519531 0.273438 -2.828125 0.328125 -3.109375 C 0.378906 -3.390625 0.46875 -3.628906 0.59375 -3.828125 C 0.71875 -4.035156 0.878906 -4.191406 1.078125 -4.296875 C 1.273438 -4.410156 1.519531 -4.46875 1.8125 -4.46875 C 2.09375 -4.46875 2.328125 -4.414062 2.515625 -4.3125 C 2.703125 -4.21875 2.851562 -4.070312 2.96875 -3.875 C 3.082031 -3.6875 3.164062 -3.453125 3.21875 -3.171875 C 3.269531 -2.890625 3.296875 -2.570312 3.296875 -2.21875 Z M 2.6875 -2.171875 C 2.6875 -2.390625 2.675781 -2.585938 2.65625 -2.765625 C 2.644531 -2.941406 2.625 -3.09375 2.59375 -3.21875 C 2.5625 -3.351562 2.519531 -3.46875 2.46875 -3.5625 C 2.425781 -3.664062 2.367188 -3.75 2.296875 -3.8125 C 2.234375 -3.875 2.15625 -3.914062 2.0625 -3.9375 C 1.976562 -3.96875 1.882812 -3.984375 1.78125 -3.984375 C 1.582031 -3.984375 1.421875 -3.9375 1.296875 -3.84375 C 1.179688 -3.757812 1.085938 -3.632812 1.015625 -3.46875 C 0.953125 -3.3125 0.90625 -3.125 0.875 -2.90625 C 0.851562 -2.695312 0.84375 -2.472656 0.84375 -2.234375 C 0.84375 -1.898438 0.859375 -1.617188 0.890625 -1.390625 C 0.929688 -1.160156 0.988281 -0.972656 1.0625 -0.828125 C 1.132812 -0.679688 1.226562 -0.578125 1.34375 -0.515625 C 1.457031 -0.453125 1.59375 -0.421875 1.75 -0.421875 C 1.882812 -0.421875 2 -0.4375 2.09375 -0.46875 C 2.1875 -0.507812 2.265625 -0.566406 2.328125 -0.640625 C 2.398438 -0.722656 2.457031 -0.816406 2.5 -0.921875 C 2.550781 -1.023438 2.585938 -1.140625 2.609375 -1.265625 C 2.640625 -1.398438 2.660156 -1.539062 2.671875 -1.6875 C 2.679688 -1.84375 2.6875 -2.003906 2.6875 -2.171875 Z M 2.6875 -2.171875 "/>
</g>
<g id="glyph-0-1">
<path d="M 3.125 -1.421875 C 3.125 -1.179688 3.082031 -0.96875 3 -0.78125 C 2.925781 -0.601562 2.816406 -0.445312 2.671875 -0.3125 C 2.523438 -0.1875 2.347656 -0.09375 2.140625 -0.03125 C 1.941406 0.03125 1.722656 0.0625 1.484375 0.0625 C 1.347656 0.0625 1.21875 0.0507812 1.09375 0.03125 C 0.96875 0.0078125 0.859375 -0.0078125 0.765625 -0.03125 C 0.671875 -0.0625 0.59375 -0.0859375 0.53125 -0.109375 C 0.46875 -0.140625 0.425781 -0.160156 0.40625 -0.171875 C 0.394531 -0.191406 0.382812 -0.207031 0.375 -0.21875 C 0.375 -0.238281 0.367188 -0.257812 0.359375 -0.28125 C 0.347656 -0.300781 0.34375 -0.320312 0.34375 -0.34375 C 0.34375 -0.375 0.34375 -0.410156 0.34375 -0.453125 C 0.34375 -0.492188 0.34375 -0.53125 0.34375 -0.5625 C 0.351562 -0.59375 0.359375 -0.613281 0.359375 -0.625 C 0.367188 -0.644531 0.378906 -0.660156 0.390625 -0.671875 C 0.410156 -0.679688 0.425781 -0.6875 0.4375 -0.6875 C 0.457031 -0.6875 0.492188 -0.671875 0.546875 -0.640625 C 0.597656 -0.617188 0.660156 -0.585938 0.734375 -0.546875 C 0.816406 -0.515625 0.914062 -0.484375 1.03125 -0.453125 C 1.15625 -0.429688 1.300781 -0.421875 1.46875 -0.421875 C 1.613281 -0.421875 1.75 -0.4375 1.875 -0.46875 C 2.007812 -0.507812 2.117188 -0.566406 2.203125 -0.640625 C 2.296875 -0.722656 2.367188 -0.820312 2.421875 -0.9375 C 2.472656 -1.050781 2.5 -1.191406 2.5 -1.359375 C 2.5 -1.503906 2.476562 -1.628906 2.4375 -1.734375 C 2.394531 -1.835938 2.328125 -1.925781 2.234375 -2 C 2.140625 -2.070312 2.019531 -2.125 1.875 -2.15625 C 1.738281 -2.195312 1.570312 -2.21875 1.375 -2.21875 C 1.238281 -2.21875 1.117188 -2.207031 1.015625 -2.1875 C 0.921875 -2.175781 0.832031 -2.171875 0.75 -2.171875 C 0.6875 -2.171875 0.640625 -2.1875 0.609375 -2.21875 C 0.578125 -2.25 0.5625 -2.304688 0.5625 -2.390625 L 0.5625 -4.1875 C 0.5625 -4.257812 0.578125 -4.3125 0.609375 -4.34375 C 0.648438 -4.382812 0.703125 -4.40625 0.765625 -4.40625 L 2.71875 -4.40625 C 2.738281 -4.40625 2.753906 -4.398438 2.765625 -4.390625 C 2.785156 -4.378906 2.800781 -4.363281 2.8125 -4.34375 C 2.820312 -4.320312 2.828125 -4.296875 2.828125 -4.265625 C 2.835938 -4.234375 2.84375 -4.195312 2.84375 -4.15625 C 2.84375 -4.070312 2.832031 -4.003906 2.8125 -3.953125 C 2.789062 -3.910156 2.757812 -3.890625 2.71875 -3.890625 L 1.078125 -3.890625 L 1.078125 -2.65625 C 1.160156 -2.664062 1.242188 -2.671875 1.328125 -2.671875 C 1.410156 -2.679688 1.503906 -2.6875 1.609375 -2.6875 C 1.859375 -2.6875 2.078125 -2.65625 2.265625 -2.59375 C 2.453125 -2.53125 2.609375 -2.441406 2.734375 -2.328125 C 2.867188 -2.222656 2.96875 -2.09375 3.03125 -1.9375 C 3.09375 -1.78125 3.125 -1.609375 3.125 -1.421875 Z M 3.125 -1.421875 "/>
</g>
<g id="glyph-0-2">
<path d="M 3.15625 -0.234375 C 3.15625 -0.191406 3.148438 -0.15625 3.140625 -0.125 C 3.140625 -0.09375 3.128906 -0.0664062 3.109375 -0.046875 C 3.097656 -0.0351562 3.085938 -0.0234375 3.078125 -0.015625 C 3.066406 -0.00390625 3.050781 0 3.03125 0 L 0.734375 0 C 0.710938 0 0.695312 -0.00390625 0.6875 -0.015625 C 0.675781 -0.0234375 0.660156 -0.0351562 0.640625 -0.046875 C 0.628906 -0.0664062 0.617188 -0.09375 0.609375 -0.125 C 0.609375 -0.15625 0.609375 -0.191406 0.609375 -0.234375 C 0.609375 -0.273438 0.609375 -0.304688 0.609375 -0.328125 C 0.617188 -0.359375 0.628906 -0.382812 0.640625 -0.40625 C 0.648438 -0.425781 0.660156 -0.441406 0.671875 -0.453125 C 0.691406 -0.460938 0.710938 -0.46875 0.734375 -0.46875 L 1.65625 -0.46875 L 1.65625 -3.8125 L 0.796875 -3.3125 C 0.753906 -3.289062 0.71875 -3.273438 0.6875 -3.265625 C 0.664062 -3.265625 0.644531 -3.269531 0.625 -3.28125 C 0.613281 -3.300781 0.601562 -3.328125 0.59375 -3.359375 C 0.59375 -3.390625 0.59375 -3.429688 0.59375 -3.484375 C 0.59375 -3.523438 0.59375 -3.554688 0.59375 -3.578125 C 0.601562 -3.609375 0.609375 -3.632812 0.609375 -3.65625 C 0.617188 -3.675781 0.628906 -3.691406 0.640625 -3.703125 C 0.648438 -3.710938 0.664062 -3.726562 0.6875 -3.75 L 1.703125 -4.390625 C 1.710938 -4.398438 1.722656 -4.40625 1.734375 -4.40625 C 1.753906 -4.414062 1.773438 -4.421875 1.796875 -4.421875 C 1.816406 -4.429688 1.835938 -4.4375 1.859375 -4.4375 C 1.890625 -4.4375 1.925781 -4.4375 1.96875 -4.4375 C 2.019531 -4.4375 2.0625 -4.429688 2.09375 -4.421875 C 2.132812 -4.421875 2.164062 -4.414062 2.1875 -4.40625 C 2.207031 -4.394531 2.21875 -4.382812 2.21875 -4.375 C 2.226562 -4.363281 2.234375 -4.351562 2.234375 -4.34375 L 2.234375 -0.46875 L 3.03125 -0.46875 C 3.050781 -0.46875 3.066406 -0.460938 3.078125 -0.453125 C 3.097656 -0.441406 3.113281 -0.425781 3.125 -0.40625 C 3.132812 -0.382812 3.140625 -0.359375 3.140625 -0.328125 C 3.148438 -0.304688 3.15625 -0.273438 3.15625 -0.234375 Z M 3.15625 -0.234375 "/>
</g>
<g id="glyph-0-3">
<path d="M 3.140625 -0.25 C 3.140625 -0.207031 3.132812 -0.171875 3.125 -0.140625 C 3.125 -0.109375 3.117188 -0.0820312 3.109375 -0.0625 C 3.097656 -0.0390625 3.082031 -0.0234375 3.0625 -0.015625 C 3.050781 -0.00390625 3.035156 0 3.015625 0 L 0.578125 0 C 0.546875 0 0.519531 -0.00390625 0.5 -0.015625 C 0.476562 -0.0234375 0.457031 -0.0351562 0.4375 -0.046875 C 0.414062 -0.0664062 0.398438 -0.09375 0.390625 -0.125 C 0.390625 -0.164062 0.390625 -0.207031 0.390625 -0.25 C 0.390625 -0.300781 0.390625 -0.34375 0.390625 -0.375 C 0.390625 -0.40625 0.394531 -0.429688 0.40625 -0.453125 C 0.425781 -0.484375 0.441406 -0.507812 0.453125 -0.53125 C 0.472656 -0.5625 0.5 -0.59375 0.53125 -0.625 L 1.375 -1.53125 C 1.570312 -1.738281 1.726562 -1.925781 1.84375 -2.09375 C 1.96875 -2.257812 2.0625 -2.410156 2.125 -2.546875 C 2.1875 -2.679688 2.226562 -2.800781 2.25 -2.90625 C 2.269531 -3.019531 2.28125 -3.128906 2.28125 -3.234375 C 2.28125 -3.328125 2.265625 -3.414062 2.234375 -3.5 C 2.203125 -3.59375 2.15625 -3.671875 2.09375 -3.734375 C 2.039062 -3.796875 1.96875 -3.847656 1.875 -3.890625 C 1.78125 -3.929688 1.675781 -3.953125 1.5625 -3.953125 C 1.425781 -3.953125 1.300781 -3.929688 1.1875 -3.890625 C 1.082031 -3.847656 0.988281 -3.804688 0.90625 -3.765625 C 0.820312 -3.722656 0.75 -3.679688 0.6875 -3.640625 C 0.632812 -3.597656 0.59375 -3.578125 0.5625 -3.578125 C 0.550781 -3.578125 0.535156 -3.582031 0.515625 -3.59375 C 0.503906 -3.601562 0.492188 -3.617188 0.484375 -3.640625 C 0.484375 -3.660156 0.476562 -3.6875 0.46875 -3.71875 C 0.46875 -3.757812 0.46875 -3.800781 0.46875 -3.84375 C 0.46875 -3.875 0.46875 -3.898438 0.46875 -3.921875 C 0.46875 -3.953125 0.472656 -3.976562 0.484375 -4 C 0.492188 -4.019531 0.5 -4.035156 0.5 -4.046875 C 0.507812 -4.066406 0.53125 -4.085938 0.5625 -4.109375 C 0.59375 -4.128906 0.640625 -4.160156 0.703125 -4.203125 C 0.765625 -4.242188 0.847656 -4.285156 0.953125 -4.328125 C 1.054688 -4.367188 1.164062 -4.398438 1.28125 -4.421875 C 1.40625 -4.453125 1.535156 -4.46875 1.671875 -4.46875 C 1.878906 -4.46875 2.0625 -4.4375 2.21875 -4.375 C 2.382812 -4.3125 2.519531 -4.226562 2.625 -4.125 C 2.726562 -4.019531 2.804688 -3.898438 2.859375 -3.765625 C 2.910156 -3.628906 2.9375 -3.484375 2.9375 -3.328125 C 2.9375 -3.179688 2.925781 -3.035156 2.90625 -2.890625 C 2.882812 -2.753906 2.832031 -2.601562 2.75 -2.4375 C 2.664062 -2.28125 2.546875 -2.101562 2.390625 -1.90625 C 2.242188 -1.707031 2.046875 -1.476562 1.796875 -1.21875 L 1.09375 -0.5 L 3.015625 -0.5 C 3.023438 -0.5 3.039062 -0.492188 3.0625 -0.484375 C 3.082031 -0.472656 3.097656 -0.457031 3.109375 -0.4375 C 3.117188 -0.414062 3.125 -0.390625 3.125 -0.359375 C 3.132812 -0.328125 3.140625 -0.289062 3.140625 -0.25 Z M 3.140625 -0.25 "/>
</g>
<g id="glyph-1-0">
<path d="M 1.578125 -0.390625 C 1.578125 -0.640625 1.375 -0.796875 1.1875 -0.796875 C 0.953125 -0.796875 0.78125 -0.609375 0.78125 -0.40625 C 0.78125 -0.15625 0.984375 0 1.171875 0 C 1.40625 0 1.578125 -0.1875 1.578125 -0.390625 Z M 1.578125 -0.390625 "/>
</g>
<g id="glyph-2-0">
<path d="M 1.890625 -1.640625 L 2.5625 -0.15625 C 2.570312 -0.125 2.578125 -0.09375 2.578125 -0.0625 C 2.578125 -0.0390625 2.5625 -0.0234375 2.53125 -0.015625 C 2.507812 -0.00390625 2.472656 0 2.421875 0 C 2.378906 0.0078125 2.328125 0.015625 2.265625 0.015625 C 2.203125 0.015625 2.148438 0.015625 2.109375 0.015625 C 2.078125 0.015625 2.050781 0.0078125 2.03125 0 C 2.007812 -0.0078125 1.992188 -0.0195312 1.984375 -0.03125 C 1.972656 -0.0390625 1.96875 -0.0546875 1.96875 -0.078125 L 1.453125 -1.28125 L 0.484375 -0.078125 C 0.472656 -0.0546875 0.457031 -0.0390625 0.4375 -0.03125 C 0.425781 -0.0195312 0.40625 -0.0078125 0.375 0 C 0.351562 0 0.320312 0 0.28125 0 C 0.238281 0.0078125 0.179688 0.015625 0.109375 0.015625 C 0.046875 0.015625 -0.00390625 0.0078125 -0.046875 0 C -0.0859375 0 -0.113281 -0.00390625 -0.125 -0.015625 C -0.144531 -0.0234375 -0.15625 -0.0390625 -0.15625 -0.0625 C -0.15625 -0.0820312 -0.144531 -0.109375 -0.125 -0.140625 L 1.15625 -1.65625 L 0.53125 -3.09375 C 0.507812 -3.125 0.5 -3.148438 0.5 -3.171875 C 0.507812 -3.191406 0.523438 -3.207031 0.546875 -3.21875 C 0.566406 -3.226562 0.597656 -3.234375 0.640625 -3.234375 C 0.679688 -3.242188 0.738281 -3.25 0.8125 -3.25 C 0.875 -3.25 0.921875 -3.25 0.953125 -3.25 C 0.992188 -3.25 1.023438 -3.242188 1.046875 -3.234375 C 1.066406 -3.222656 1.078125 -3.210938 1.078125 -3.203125 C 1.085938 -3.191406 1.097656 -3.179688 1.109375 -3.171875 L 1.59375 -2.015625 L 2.515625 -3.171875 C 2.523438 -3.179688 2.535156 -3.191406 2.546875 -3.203125 C 2.566406 -3.210938 2.585938 -3.222656 2.609375 -3.234375 C 2.628906 -3.242188 2.660156 -3.25 2.703125 -3.25 C 2.742188 -3.25 2.789062 -3.25 2.84375 -3.25 C 2.914062 -3.25 2.972656 -3.242188 3.015625 -3.234375 C 3.054688 -3.234375 3.085938 -3.226562 3.109375 -3.21875 C 3.128906 -3.207031 3.140625 -3.191406 3.140625 -3.171875 C 3.140625 -3.148438 3.125 -3.125 3.09375 -3.09375 Z M 1.890625 -1.640625 "/>
</g>
<g id="glyph-2-1">
<path d="M 3.171875 -3.171875 C 3.171875 -3.148438 3.164062 -3.125 3.15625 -3.09375 C 3.15625 -3.070312 3.148438 -3.046875 3.140625 -3.015625 C 3.066406 -2.816406 2.984375 -2.601562 2.890625 -2.375 C 2.804688 -2.15625 2.703125 -1.921875 2.578125 -1.671875 C 2.460938 -1.429688 2.328125 -1.175781 2.171875 -0.90625 C 2.015625 -0.644531 1.828125 -0.367188 1.609375 -0.078125 L 0.71875 1.125 C 0.707031 1.144531 0.691406 1.160156 0.671875 1.171875 C 0.648438 1.179688 0.625 1.191406 0.59375 1.203125 C 0.5625 1.210938 0.523438 1.21875 0.484375 1.21875 C 0.441406 1.226562 0.394531 1.234375 0.34375 1.234375 C 0.28125 1.234375 0.226562 1.226562 0.1875 1.21875 C 0.144531 1.21875 0.113281 1.210938 0.09375 1.203125 C 0.0820312 1.191406 0.078125 1.171875 0.078125 1.140625 C 0.078125 1.117188 0.0859375 1.09375 0.109375 1.0625 L 0.953125 0 L 0.4375 -2.984375 C 0.4375 -3.015625 0.429688 -3.039062 0.421875 -3.0625 C 0.421875 -3.082031 0.421875 -3.101562 0.421875 -3.125 C 0.421875 -3.144531 0.425781 -3.164062 0.4375 -3.1875 C 0.445312 -3.207031 0.460938 -3.222656 0.484375 -3.234375 C 0.503906 -3.242188 0.53125 -3.25 0.5625 -3.25 C 0.601562 -3.25 0.65625 -3.25 0.71875 -3.25 C 0.769531 -3.25 0.8125 -3.25 0.84375 -3.25 C 0.882812 -3.25 0.914062 -3.242188 0.9375 -3.234375 C 0.957031 -3.222656 0.96875 -3.207031 0.96875 -3.1875 C 0.976562 -3.175781 0.988281 -3.160156 1 -3.140625 L 1.390625 -0.640625 L 1.40625 -0.640625 C 1.539062 -0.835938 1.664062 -1.035156 1.78125 -1.234375 C 1.894531 -1.441406 2 -1.648438 2.09375 -1.859375 C 2.1875 -2.066406 2.273438 -2.28125 2.359375 -2.5 C 2.441406 -2.71875 2.515625 -2.9375 2.578125 -3.15625 C 2.585938 -3.164062 2.597656 -3.175781 2.609375 -3.1875 C 2.617188 -3.207031 2.632812 -3.222656 2.65625 -3.234375 C 2.6875 -3.242188 2.722656 -3.25 2.765625 -3.25 C 2.804688 -3.25 2.851562 -3.25 2.90625 -3.25 C 3.007812 -3.25 3.078125 -3.242188 3.109375 -3.234375 C 3.148438 -3.222656 3.171875 -3.203125 3.171875 -3.171875 Z M 3.171875 -3.171875 "/>
</g>
</g>
<clipPath id="clip-0">
<path clip-rule="nonzero" d="M 13.679688 11.355469 L 84 11.355469 L 84 116.898438 L 13.679688 116.898438 Z M 13.679688 11.355469 "/>
</clipPath>
<clipPath id="clip-1">
<path clip-rule="nonzero" d="M 73 11.355469 L 143.191406 11.355469 L 143.191406 116.898438 L 73 116.898438 Z M 73 11.355469 "/>
</clipPath>
</defs>
<path fill="none" stroke-width="0.19925" stroke-linecap="butt" stroke-linejoin="miter" stroke="rgb(50%, 50%, 50%)" stroke-opacity="1" stroke-miterlimit="10" d="M 20.605156 -0.467187 L 20.605156 2.36875 M 50.03875 -0.467187 L 50.03875 2.36875 M 79.472344 -0.467187 L 79.472344 2.36875 M 108.909844 -0.467187 L 108.909844 2.36875 " transform="matrix(1, 0, 0, -1, 13.68, 116.9)"/>
<path fill="none" stroke-width="0.19925" stroke-linecap="butt" stroke-linejoin="miter" stroke="rgb(50%, 50%, 50%)" stroke-opacity="1" stroke-miterlimit="10" d="M 35.32 -1.174219 L 35.32 3.075781 M 64.7575 -1.174219 L 64.7575 3.075781 M 94.191094 -1.174219 L 94.191094 3.075781 M 123.624687 -1.174219 L 123.624687 3.075781 " transform="matrix(1, 0, 0, -1, 13.68, 116.9)"/>
<path fill="none" stroke-width="0.19925" stroke-linecap="butt" stroke-linejoin="miter" stroke="rgb(50%, 50%, 50%)" stroke-opacity="1" stroke-miterlimit="10" d="M 3.761406 48.49375 L 8.011406 48.49375 M 3.761406 96.032813 L 8.011406 96.032813 " transform="matrix(1, 0, 0, -1, 13.68, 116.9)"/>
<path fill="none" stroke-width="0.3985" stroke-linecap="butt" stroke-linejoin="miter" stroke="rgb(0%, 0%, 0%)" stroke-opacity="1" stroke-miterlimit="10" d="M -0.0003125 0.950781 L 127.519219 0.950781 " transform="matrix(1, 0, 0, -1, 13.68, 116.9)"/>
<path fill-rule="nonzero" fill="rgb(0%, 0%, 0%)" fill-opacity="1" d="M 143.191406 115.949219 L 140.003906 114.355469 L 141.199219 115.949219 L 140.003906 117.542969 "/>
<path fill="none" stroke-width="0.3985" stroke-linecap="butt" stroke-linejoin="miter" stroke="rgb(0%, 0%, 0%)" stroke-opacity="1" stroke-miterlimit="10" d="M 5.886406 0.0015625 L 5.886406 103.552344 " transform="matrix(1, 0, 0, -1, 13.68, 116.9)"/>
<path fill-rule="nonzero" fill="rgb(0%, 0%, 0%)" fill-opacity="1" d="M 19.566406 11.355469 L 17.972656 14.546875 L 19.566406 13.347656 L 21.160156 14.546875 "/>
<g fill="rgb(0%, 0%, 0%)" fill-opacity="1">
<use xlink:href="#glyph-0-0" x="44.29" y="126.07"/>
</g>
<g fill="rgb(0%, 0%, 0%)" fill-opacity="1">
<use xlink:href="#glyph-1-0" x="47.82" y="126.07"/>
</g>
<g fill="rgb(0%, 0%, 0%)" fill-opacity="1">
<use xlink:href="#glyph-0-1" x="50.19" y="126.07"/>
</g>
<g fill="rgb(0%, 0%, 0%)" fill-opacity="1">
<use xlink:href="#glyph-0-2" x="76.67" y="126.03"/>
</g>
<g fill="rgb(0%, 0%, 0%)" fill-opacity="1">
<use xlink:href="#glyph-0-2" x="103.16" y="126.03"/>
</g>
<g fill="rgb(0%, 0%, 0%)" fill-opacity="1">
<use xlink:href="#glyph-1-0" x="106.69" y="126.03"/>
</g>
<g fill="rgb(0%, 0%, 0%)" fill-opacity="1">
<use xlink:href="#glyph-0-1" x="109.06" y="126.03"/>
</g>
<g fill="rgb(0%, 0%, 0%)" fill-opacity="1">
<use xlink:href="#glyph-0-3" x="135.54" y="126.07"/>
</g>
<g fill="rgb(0%, 0%, 0%)" fill-opacity="1">
<use xlink:href="#glyph-0-1" x="6.86" y="70.61"/>
<use xlink:href="#glyph-0-0" x="10.395818" y="70.61"/>
</g>
<g fill="rgb(0%, 0%, 0%)" fill-opacity="1">
<use xlink:href="#glyph-0-2" x="3.32" y="23.07"/>
<use xlink:href="#glyph-0-0" x="6.855818" y="23.07"/>
<use xlink:href="#glyph-0-0" x="10.391636" y="23.07"/>
</g>
<g clip-path="url(#clip-0)">
<path fill="none" stroke-width="0.79701" stroke-linecap="butt" stroke-linejoin="miter" stroke="rgb(0%, 0%, 100%)" stroke-opacity="1" stroke-miterlimit="10" d="M 5.886406 1.9 C 5.886406 1.9 8.015313 1.974219 8.831719 2.005469 C 9.648125 2.036719 10.956719 2.0875 11.773125 2.126563 C 12.589531 2.161719 13.902031 2.224219 14.718438 2.267188 C 15.534844 2.310156 16.843438 2.384375 17.659844 2.435156 C 18.47625 2.489844 19.78875 2.579688 20.605156 2.642188 C 21.421563 2.704688 22.730156 2.814063 23.546563 2.892188 C 24.362969 2.970313 25.675469 3.103125 26.491875 3.200781 C 27.308281 3.298438 28.616875 3.466406 29.433281 3.591406 C 30.249688 3.716406 31.562188 3.93125 32.378594 4.095313 C 33.195 4.255469 34.503594 4.540625 35.32 4.755469 C 36.140313 4.970313 37.448906 5.349219 38.265313 5.646094 C 39.081719 5.942969 40.390313 6.466406 41.210625 6.892188 C 42.027031 7.317969 43.335625 8.071875 44.152031 8.7125 C 44.968438 9.353125 46.277031 10.482031 47.097344 11.517188 C 47.91375 12.548438 49.222344 14.333594 50.03875 16.165625 C 50.855156 17.997656 52.167656 20.970313 52.984063 24.720313 C 53.800469 28.474219 55.109063 33.314063 55.925469 43.208594 C 56.741875 53.103125 58.870781 96.032813 58.870781 96.032813 " transform="matrix(1, 0, 0, -1, 13.68, 116.9)"/>
</g>
<g clip-path="url(#clip-1)">
<path fill="none" stroke-width="0.79701" stroke-linecap="butt" stroke-linejoin="miter" stroke="rgb(0%, 0%, 100%)" stroke-opacity="1" stroke-miterlimit="10" d="M 70.644219 96.032813 C 70.644219 96.032813 72.769219 53.103125 73.585625 43.208594 C 74.402031 33.314063 75.714531 28.474219 76.530937 24.720313 C 77.347344 20.970313 78.655937 17.997656 79.472344 16.165625 C 80.292656 14.333594 81.60125 12.548438 82.417656 11.517188 C 83.234062 10.482031 84.542656 9.353125 85.359062 8.7125 C 86.179375 8.071875 87.487969 7.317969 88.304375 6.892188 C 89.120781 6.466406 90.429375 5.942969 91.249687 5.646094 C 92.066094 5.349219 93.374687 4.970313 94.191094 4.755469 C 95.0075 4.540625 96.32 4.255469 97.136406 4.095313 C 97.952812 3.93125 99.261406 3.716406 100.077812 3.591406 C 100.894219 3.466406 102.206719 3.298438 103.023125 3.200781 C 103.839531 3.103125 105.148125 2.970313 105.964531 2.892188 C 106.780937 2.814063 108.093437 2.704688 108.909844 2.642188 C 109.72625 2.579688 111.034844 2.489844 111.85125 2.435156 C 112.667656 2.384375 113.980156 2.310156 114.796562 2.267188 C 115.612969 2.224219 116.921562 2.161719 117.737969 2.126563 C 118.554375 2.0875 119.866875 2.036719 120.683281 2.005469 C 121.499687 1.974219 123.624687 1.9 123.624687 1.9 " transform="matrix(1, 0, 0, -1, 13.68, 116.9)"/>
</g>
<path fill="none" stroke-width="0.79701" stroke-linecap="butt" stroke-linejoin="miter" stroke="rgb(0%, 0%, 0%)" stroke-opacity="1" stroke-dasharray="2.98883 2.98883" stroke-miterlimit="10" d="M 64.7575 1.9 L 64.7575 96.032813 " transform="matrix(1, 0, 0, -1, 13.68, 116.9)"/>
<g fill="rgb(0%, 0%, 0%)" fill-opacity="1">
<use xlink:href="#glyph-2-0" x="146.74" y="117.57"/>
</g>
<g fill="rgb(0%, 0%, 0%)" fill-opacity="1">
<use xlink:href="#glyph-2-1" x="18.01" y="6.58"/>
</g>
</svg>
